STARTFONT 2.1
FONT -FontForge-Henny Penny-Book-R-Normal--32-320-72-72-P-184-ISO10646-1
SIZE 32 72 72
FONTBOUNDINGBOX 45 56 -5 -20
COMMENT "Generated by fontforge, http://fontforge.sourceforge.net"
COMMENT "Copyright (c) 2012, Brownfox (gayaneh.b@gmail.com), with Reserved Font Name "Henny Penny""
STARTPROPERTIES 39
FOUNDRY "FontForge"
FAMILY_NAME "Henny Penny"
WEIGHT_NAME "Book"
SLANT "R"
SETWIDTH_NAME "Normal"
ADD_STYLE_NAME ""
PIXEL_SIZE 32
POINT_SIZE 320
RESOLUTION_X 72
RESOLUTION_Y 72
SPACING "P"
AVERAGE_WIDTH 184
CHARSET_REGISTRY "ISO10646"
CHARSET_ENCODING "1"
FONTNAME_REGISTRY ""
CHARSET_COLLECTIONS "ISO10646-1"
FONT_NAME "HennyPenny-Regular"
FACE_NAME "Henny Penny"
COPYRIGHT "Copyright (c) 2012, Brownfox (gayaneh.b@gmail.com), with Reserved Font Name "Henny Penny""
FONT_VERSION "1.001"
FONT_ASCENT 26
FONT_DESCENT 6
UNDERLINE_POSITION -3
UNDERLINE_THICKNESS 2
X_HEIGHT 19
CAP_HEIGHT 23
RAW_ASCENT 799
RAW_DESCENT 200
NORM_SPACE 9
RELATIVE_WEIGHT 40
RELATIVE_SETWIDTH 50
SUPERSCRIPT_X 0
SUPERSCRIPT_Y 11
SUPERSCRIPT_SIZE 19
SUBSCRIPT_X 0
SUBSCRIPT_Y 2
SUBSCRIPT_SIZE 19
AVG_LOWERCASE_WIDTH 164
AVG_UPPERCASE_WIDTH 230
ENDPROPERTIES
CHARS 233
STARTCHAR space
ENCODING 32
SWIDTH 270 0
DWIDTH 9 0
BBX 1 1 0 0
BITMAP
00
ENDCHAR
STARTCHAR exclam
ENCODING 33
SWIDTH 249 0
DWIDTH 8 0
BBX 5 31 2 -1
BITMAP
60
F0
F0
F0
F8
F0
F0
70
70
70
70
70
70
70
70
30
30
20
20
20
20
20
20
40
00
00
00
60
F0
F0
60
ENDCHAR
STARTCHAR quotedbl
ENCODING 34
SWIDTH 292 0
DWIDTH 9 0
BBX 6 12 2 15
BITMAP
0C
CC
CC
CC
CC
CC
CC
4C
4C
4C
4C
48
ENDCHAR
STARTCHAR numbersign
ENCODING 35
SWIDTH 1030 0
DWIDTH 33 0
BBX 29 36 2 -10
BITMAP
00008000
00008000
00010000
00010000
00020800
00021000
00021000
00043000
00042000
00086000
7FFFE000
0018FBF8
00108000
00318000
00210000
00630000
00420000
00420700
00CFF800
1FFC0000
FF8C0000
01080000
03180000
03100000
06300000
06200000
0C600000
0C600000
18400000
18C00000
00800000
01800000
01800000
03000000
03000000
02000000
ENDCHAR
STARTCHAR dollar
ENCODING 36
SWIDTH 799 0
DWIDTH 26 0
BBX 19 36 3 -7
BITMAP
000400
000400
000420
000860
00FEC0
01CBC0
0389C0
078980
079080
079080
079080
07D080
07F000
03F000
03F000
01F800
00FC00
007E00
003F00
005F00
004F80
204F80
204780
208780
308380
308380
308380
708380
790700
5D0700
870E00
01F800
020000
020000
020000
020000
ENDCHAR
STARTCHAR percent
ENCODING 37
SWIDTH 789 0
DWIDTH 25 0
BBX 24 30 1 0
BITMAP
0F8008
38C008
30E010
706030
707060
707040
7070C0
706180
386100
3CC300
0F8600
000C00
000800
001800
003000
006000
004000
00C0F8
01838C
01070E
030607
060E07
040E07
080E07
180E07
300E07
20060E
40071C
C001F0
800000
ENDCHAR
STARTCHAR ampersand
ENCODING 38
SWIDTH 773 0
DWIDTH 25 0
BBX 23 31 1 -3
BITMAP
01E000
063000
0C1800
081800
181800
183800
187000
186000
18E000
1DC000
1F8010
0F0070
1E00F0
1E03F0
3F1C70
7B0030
7B8030
F9C020
F1C020
F0E060
F0F040
F07840
F03C80
F81F80
781F02
3C0F84
1E0FE4
0FF3F8
0001F8
0000F0
000070
ENDCHAR
STARTCHAR quotesingle
ENCODING 39
SWIDTH 174 0
DWIDTH 6 0
BBX 2 10 2 15
BITMAP
C0
C0
C0
C0
C0
C0
40
40
40
40
ENDCHAR
STARTCHAR parenleft
ENCODING 40
SWIDTH 431 0
DWIDTH 14 0
BBX 13 45 0 -13
BITMAP
0100
0200
0600
0400
0C00
0800
1800
1800
3800
3000
3000
7000
7000
7000
7000
F000
E000
E000
E000
E000
E000
E000
E000
F000
F000
F000
7000
7000
7800
7800
3800
3C00
3C00
1C00
1E00
0E00
0F00
0700
0380
0180
01C0
00E0
0070
0030
0008
ENDCHAR
STARTCHAR parenright
ENCODING 41
SWIDTH 443 0
DWIDTH 14 0
BBX 14 31 0 -7
BITMAP
3000
1C00
0F00
0380
03C0
01E0
00F0
00F0
0078
0078
0038
003C
003C
003C
003C
003C
003C
003C
003C
0038
0038
0078
0070
0070
00E0
01C0
0380
0700
0E00
1C00
F000
ENDCHAR
STARTCHAR asterisk
ENCODING 42
SWIDTH 490 0
DWIDTH 16 0
BBX 13 13 1 16
BITMAP
0700
0700
0310
0338
0330
6160
FD40
3F80
03C0
0E60
1C70
1838
0038
ENDCHAR
STARTCHAR plus
ENCODING 43
SWIDTH 440 0
DWIDTH 14 0
BBX 11 16 1 3
BITMAP
0200
0200
0200
0200
0200
0200
0200
0260
FF80
0200
0200
0200
0200
0200
0200
0300
ENDCHAR
STARTCHAR comma
ENCODING 44
SWIDTH 251 0
DWIDTH 8 0
BBX 5 11 1 -6
BITMAP
70
F8
F8
F8
78
38
30
30
20
60
40
ENDCHAR
STARTCHAR hyphen
ENCODING 45
SWIDTH 436 0
DWIDTH 14 0
BBX 10 1 2 6
BITMAP
FFC0
ENDCHAR
STARTCHAR period
ENCODING 46
SWIDTH 238 0
DWIDTH 8 0
BBX 4 5 2 -1
BITMAP
60
F0
F0
F0
60
ENDCHAR
STARTCHAR slash
ENCODING 47
SWIDTH 690 0
DWIDTH 22 0
BBX 22 30 0 0
BITMAP
000004
000008
000008
000010
000030
000060
000040
0000C0
000180
000300
000200
000600
000C00
000800
001800
003000
006000
004000
00C000
018000
010000
020000
060000
0C0000
080000
180000
300000
200000
400000
C00000
ENDCHAR
STARTCHAR zero
ENCODING 48
SWIDTH 723 0
DWIDTH 23 0
BBX 23 23 0 2
BITMAP
00FE00
070380
0E00E0
1C0070
380078
700038
70003C
70003C
F0001C
F0001E
F0001E
F0001E
F0001E
F0001E
F0001E
70001C
78001C
380038
3C0038
1C0070
0F00E0
0381C0
00FE00
ENDCHAR
STARTCHAR one
ENCODING 49
SWIDTH 505 0
DWIDTH 16 0
BBX 16 29 0 -2
BITMAP
0100
0100
0180
0380
0380
0780
0F80
1F80
63C0
81C0
01C0
01C0
01C0
01C0
01E0
01E0
00E0
00E0
00E0
00F0
00F0
00F0
00F0
00F8
00FC
01FF
03C0
0E00
1800
ENDCHAR
STARTCHAR two
ENCODING 50
SWIDTH 534 0
DWIDTH 17 0
BBX 17 29 1 -3
BITMAP
07C000
1FF000
3FF800
70F800
407C00
C03C00
803C00
803C00
803C00
803C00
803800
007800
007000
006000
00E000
01C000
038000
030000
060000
180000
300000
F00000
780080
1F0100
07C200
01FE00
00FC00
003C00
001800
ENDCHAR
STARTCHAR three
ENCODING 51
SWIDTH 511 0
DWIDTH 16 0
BBX 17 26 0 -2
BITMAP
380000
3FFC00
3FFC00
381800
301000
202000
206000
204000
008000
010000
01E000
007800
003C00
001E00
000F00
800700
800780
800780
400780
400780
600F80
300F00
3C3F00
1FFE00
0FFC00
03F000
ENDCHAR
STARTCHAR four
ENCODING 52
SWIDTH 712 0
DWIDTH 23 0
BBX 23 31 0 -4
BITMAP
000400
000C00
000C00
001800
003800
007800
00B800
011C00
021C00
061C00
041C00
081C00
301E00
600E00
F00E00
7C0E00
1F0F00
03EF08
00FF0C
003FF8
000FF0
0007F0
0007A0
000780
000780
000380
0003C0
0007C0
003FE0
000030
00000E
ENDCHAR
STARTCHAR five
ENCODING 53
SWIDTH 757 0
DWIDTH 24 0
BBX 24 31 0 -3
BITMAP
000001
000C01
000F02
001FC6
0017FE
0023FC
0020FC
004078
008018
008000
010000
01F000
01FE00
003F00
000F80
0007C0
4003E0
4001E0
8001E0
8001E0
8001E0
8001E0
8001E0
8001E0
8003C0
C003C0
400780
600F00
381E00
1FFC00
07F000
ENDCHAR
STARTCHAR six
ENCODING 54
SWIDTH 598 0
DWIDTH 19 0
BBX 18 25 0 0
BITMAP
01F800
070600
0E0100
1C0080
3C00C0
380040
780000
79F800
FA0E00
FC0700
F80380
F80380
F80180
F001C0
F001C0
F001C0
F001C0
7001C0
7001C0
780180
380380
1C0300
0C0600
070C00
01F800
ENDCHAR
STARTCHAR seven
ENCODING 55
SWIDTH 507 0
DWIDTH 16 0
BBX 16 26 0 -2
BITMAP
8007
FFFE
FFFE
E0FC
401C
4008
4018
4010
8030
8020
0060
0040
00C0
00C0
0180
0180
0380
0380
0780
0700
0700
0F00
0F00
0F00
1F00
1000
ENDCHAR
STARTCHAR eight
ENCODING 56
SWIDTH 476 0
DWIDTH 15 0
BBX 15 26 0 -1
BITMAP
07C0
1E20
3C10
7810
7808
7808
7C10
7C10
7E20
3FC0
1FC0
0FE0
0FF0
1FF8
307C
603C
C01C
C01E
C00E
C00E
C00C
C00C
E00C
6018
3830
0FC0
ENDCHAR
STARTCHAR nine
ENCODING 57
SWIDTH 601 0
DWIDTH 19 0
BBX 19 24 0 0
BITMAP
07F000
1C3C00
380E00
700F00
700780
F007C0
E003C0
E003C0
E003C0
F003E0
F003E0
7003E0
7803E0
3C07E0
1E0FC0
07F3C0
0003C0
000780
000780
000F00
001E00
603C00
3FF800
0FE000
ENDCHAR
STARTCHAR colon
ENCODING 58
SWIDTH 246 0
DWIDTH 8 0
BBX 5 16 2 -1
BITMAP
70
F8
F8
F8
70
00
00
00
00
00
00
60
F0
F0
F0
60
ENDCHAR
STARTCHAR semicolon
ENCODING 59
SWIDTH 266 0
DWIDTH 9 0
BBX 5 20 2 -6
BITMAP
70
F8
F8
F8
70
00
00
00
00
00
00
70
F8
F8
F8
30
30
20
40
80
ENDCHAR
STARTCHAR less
ENCODING 60
SWIDTH 522 0
DWIDTH 17 0
BBX 13 15 2 2
BITMAP
0018
0060
00C0
0380
0600
1800
7000
C000
F000
3800
0E00
0380
00E0
0038
0008
ENDCHAR
STARTCHAR equal
ENCODING 61
SWIDTH 655 0
DWIDTH 21 0
BBX 17 6 2 6
BITMAP
00FF80
FF8000
000000
000000
000000
FFFE00
ENDCHAR
STARTCHAR greater
ENCODING 62
SWIDTH 533 0
DWIDTH 17 0
BBX 13 16 2 2
BITMAP
8000
4000
3000
1C00
0600
0180
00E0
0030
0018
0030
0060
01C0
0300
0600
1800
3000
ENDCHAR
STARTCHAR question
ENCODING 63
SWIDTH 564 0
DWIDTH 18 0
BBX 16 30 1 -3
BITMAP
07F0
183C
301E
701E
600F
F00F
F00F
F80F
FC0F
FC1F
FC1E
7C3E
387C
00F8
01E0
03C0
0700
0C00
1800
1000
1000
1200
1200
0C00
0000
0000
0E00
0F00
0F00
0600
ENDCHAR
STARTCHAR at
ENCODING 64
SWIDTH 898 0
DWIDTH 29 0
BBX 26 32 2 -9
BITMAP
001FC000
00E03800
03000C00
06000200
0C000100
18000180
10000080
2001E080
207DE040
41C7E040
4383E040
4701E040
8701E040
8F01C040
8E01C040
8E01C040
8F01C0C0
8F01C080
8F01C080
8F01E180
8782E300
87C67E00
43FC3C00
40F00000
40070000
20078000
200F8000
10078000
18038000
0C030000
03070000
00FC0000
ENDCHAR
STARTCHAR A
ENCODING 65
SWIDTH 784 0
DWIDTH 25 0
BBX 26 29 0 -3
BITMAP
000C0000
001C0000
007C0000
07FE0000
003E0000
002E0000
002F0000
004F0000
00470000
00478000
00878000
00838000
0083C000
01C3C000
017BC000
010FE000
0303E000
0201E000
0200F000
0600F000
0400F000
0C007800
0C007800
FC007C00
0E007C00
03003E00
00003F00
00007FC0
00038000
ENDCHAR
STARTCHAR B
ENCODING 66
SWIDTH 685 0
DWIDTH 22 0
BBX 21 32 0 -5
BITMAP
007F00
FF8F80
1E07C0
0E03C0
0E03C0
0F03C0
0703C0
0703C0
070380
070700
070E00
071800
07FF00
0703C0
0701E0
0700F0
0700F0
070078
070078
070078
078078
078078
078078
078078
0780F0
0780F0
0F81E0
0FC3C0
1FFE00
300000
C00000
800000
ENDCHAR
STARTCHAR C
ENCODING 67
SWIDTH 742 0
DWIDTH 24 0
BBX 23 31 0 -3
BITMAP
000008
000008
000008
000008
000018
00FFF8
03C0F8
0F0038
1E0018
3C000C
3C0004
780004
780000
780000
F80000
F80000
F80000
F80000
F80000
F80002
F80002
F80002
7C0002
7C0002
7E0006
3E0004
1F000C
1F8018
07E070
03FFE0
007F00
ENDCHAR
STARTCHAR D
ENCODING 68
SWIDTH 726 0
DWIDTH 23 0
BBX 23 27 0 -5
BITMAP
007F80
7F83E0
0F00F0
0F0078
0F007C
07003C
07003E
07003E
07003E
07001E
07001E
07003E
07003E
07003C
07003C
07003C
070078
078070
0780E0
07C380
07FC00
0FC000
0F0000
1C0000
300000
600000
800000
ENDCHAR
STARTCHAR E
ENCODING 69
SWIDTH 557 0
DWIDTH 18 0
BBX 18 29 0 -3
BITMAP
001F00
FFE300
3E0100
1E0100
1E0100
1E0100
1E0000
1E0000
1E0000
0E0000
0E0000
0E1000
0E1000
0FF000
0E3000
0E1000
0F1000
0F1000
0F0000
070000
070000
070000
070040
070040
070040
070080
070180
FFFF80
001F80
ENDCHAR
STARTCHAR F
ENCODING 70
SWIDTH 533 0
DWIDTH 17 0
BBX 18 28 0 -1
BITMAP
0001C0
001FC0
01E1C0
FF8180
1F0080
0F0080
0F8180
0F8100
0F8100
078800
078800
079000
079000
07F000
079000
079000
079000
039000
039000
038000
038000
038000
038000
038000
038000
038000
07C000
7FF000
ENDCHAR
STARTCHAR G
ENCODING 71
SWIDTH 750 0
DWIDTH 24 0
BBX 24 25 0 -1
BITMAP
000001
000001
000002
007F04
03C1FC
0F0078
1E0038
3C0030
3C0030
780030
780020
F80000
F80000
F80006
F8007C
F81FF8
F80078
F80078
F80078
780078
7C0078
3C0078
1E00C8
0F8300
03F800
ENDCHAR
STARTCHAR H
ENCODING 72
SWIDTH 743 0
DWIDTH 24 0
BBX 23 32 0 -4
BITMAP
700000
1FF800
0F0000
0F0002
0F003C
0F0FF8
0F00F8
0F0070
0F0070
0F0070
0F0070
0F0070
0F0070
0F0070
0F00F0
0FFFF0
0F0070
0F0070
0F0070
0F0070
0F0070
0F0070
0F0070
0F0070
0F0070
0F0030
0F0070
0F0078
0F07FE
1F0000
7F8000
804000
ENDCHAR
STARTCHAR I
ENCODING 73
SWIDTH 438 0
DWIDTH 14 0
BBX 17 33 -1 -6
BITMAP
783F80
0FF800
07E000
03E000
03C000
03C000
03C000
03C000
03C000
03C000
03C000
038000
038000
038000
038000
038000
038000
038000
038000
038000
038000
038000
038000
038000
038000
030000
030000
030000
038000
078000
0FF800
3C0000
C00000
ENDCHAR
STARTCHAR J
ENCODING 74
SWIDTH 628 0
DWIDTH 20 0
BBX 22 38 0 -8
BITMAP
000004
000038
0003C0
01FF80
001F80
000F80
000F00
000F00
000F00
000700
000700
000700
000700
000700
000700
000700
000700
000700
000700
000700
000700
000700
000700
000700
000600
000E00
000E00
000E00
000E00
3C0C00
7E1C00
7F1800
FF1800
FE3000
C07000
406000
61C000
1F0000
ENDCHAR
STARTCHAR K
ENCODING 75
SWIDTH 866 0
DWIDTH 28 0
BBX 29 29 0 -2
BITMAP
00400000
01E20000
FF038000
1F01FE00
0F00C000
0F018000
0F010000
0F020000
0F040000
0F080000
0F180000
0F380000
0F7C0000
0FBC0000
0F3E0000
071E0000
071F0060
070F8030
070F8010
0707C010
0703E018
0701F018
0700FC30
07007FF0
07003FE0
07000FC0
0F800000
1FC00000
00700000
ENDCHAR
STARTCHAR L
ENCODING 76
SWIDTH 660 0
DWIDTH 21 0
BBX 20 24 1 1
BITMAP
F00000
1FFC00
0FE000
07C000
07C000
07C000
078000
078000
078000
078000
078000
078000
078000
078080
078080
078040
078040
078040
078060
078060
078060
0781F0
1FFFF0
780000
ENDCHAR
STARTCHAR M
ENCODING 77
SWIDTH 1089 0
DWIDTH 35 0
BBX 36 24 0 -1
BITMAP
0000001F80
0000003C00
0000003000
0600007000
03F0007000
00F800F000
00DC00F000
005E017000
004F027000
004F027800
0047843800
0047C43800
0043E83800
0043E83C00
0041F83C00
0040F01C00
0040F01C00
00C0601E00
E080401E00
F180001F00
FF80001F80
FF00001FE0
FE0000F010
7C00010000
ENDCHAR
STARTCHAR N
ENCODING 78
SWIDTH 799 0
DWIDTH 26 0
BBX 25 29 0 -7
BITMAP
FF800080
0FC0FF00
0FC01C00
07E00C00
05F00800
04F80800
047C0800
043E0800
043F0800
041F8800
040FC800
040FE800
0407F800
0403F800
0401F800
0401F800
0400F800
04007800
04003800
04001800
04000800
04000000
04000000
04000000
04000000
0E000000
1E000000
7F000000
01C00000
ENDCHAR
STARTCHAR O
ENCODING 79
SWIDTH 747 0
DWIDTH 24 0
BBX 24 24 0 1
BITMAP
00FE00
0707C0
0E01E0
1C00F0
380078
38007C
78003C
70003E
F0003E
F0001E
F0001E
F0001F
F0001F
F0001E
F0001E
F8001E
78001E
78001C
3C003C
3C0038
1E0070
0F00E0
07C1C0
00FF00
ENDCHAR
STARTCHAR P
ENCODING 80
SWIDTH 623 0
DWIDTH 20 0
BBX 20 28 0 -4
BITMAP
003F80
FFE3C0
0FC1E0
07C0F0
0380F0
0380F0
0380F0
0380F0
0380E0
0381E0
0381C0
038380
03FE00
038000
038000
038000
038000
038000
038000
038000
078000
078000
07C000
07C000
07C000
0FE000
1FF000
601E00
ENDCHAR
STARTCHAR Q
ENCODING 81
SWIDTH 804 0
DWIDTH 26 0
BBX 36 38 0 -14
BITMAP
007F000000
0383E00000
0600F00000
0C007C0000
18003C0000
38001E0000
70001F0000
70000F0000
70000F0000
F0000F8000
F000078000
F000078000
F000078000
F000078000
F000078000
F000078000
F803C70000
7804770000
78083F0000
7C081E0000
3E081E0000
1F081C0000
1F883E0000
07E87E0000
03FFEF0000
007F0F0000
00000F0000
00000F8000
0000078000
0000078010
000007C010
000007C010
000003E010
000003F030
000001F860
000001FFC0
000000FFC0
0000003F00
ENDCHAR
STARTCHAR R
ENCODING 82
SWIDTH 869 0
DWIDTH 28 0
BBX 29 23 0 -1
BITMAP
001F0000
01E3C000
FFC1E000
1F81E000
0F81E000
0780E000
0781E000
0781E000
0781E000
0783C000
0783C000
038F8000
03FE0000
038F0000
038F0000
038F8010
0387C008
0383E008
0383F008
0381FC18
07C0FFF0
7FE03FE0
00380FC0
ENDCHAR
STARTCHAR S
ENCODING 83
SWIDTH 517 0
DWIDTH 17 0
BBX 17 31 0 -4
BITMAP
000100
000100
00F100
030F00
070600
0E0200
0E0200
0E0200
0F0200
0F0000
0F8000
07C000
07E000
03F000
01F000
00F800
00FC00
007E00
003E00
001F00
801F00
800F80
800F80
C00780
400780
600780
600700
700700
780E00
6E1C00
81F000
ENDCHAR
STARTCHAR T
ENCODING 84
SWIDTH 659 0
DWIDTH 21 0
BBX 22 32 0 -4
BITMAP
F8003C
FFFFFC
F01C3C
E01C1C
601C08
601C08
601C08
601C08
201C00
201C00
201C00
101C00
003C00
003C00
003C00
003C00
003C00
003C00
003C00
003C00
003C00
003C00
003C00
003C00
003C00
003C00
007E00
007F00
00FFF0
01E000
030000
040000
ENDCHAR
STARTCHAR U
ENCODING 85
SWIDTH 690 0
DWIDTH 22 0
BBX 24 23 0 1
BITMAP
001C00
00F000
0FC000
FFC000
1F8FFF
0F80F0
0F8070
0F8030
0F0030
0F0030
0F0030
0F0030
0F0030
0F8020
0F8020
0F8020
078020
078020
07C040
03C040
01F180
00FF80
003E00
ENDCHAR
STARTCHAR V
ENCODING 86
SWIDTH 798 0
DWIDTH 26 0
BBX 28 25 0 0
BITMAP
00040000
00780000
FFC00000
0FC00030
03E00060
01E000C0
01E00780
00F07F00
00F00600
00780600
00780400
003C0C00
003C0800
001E0800
001E1000
001F1000
000F9000
000FA000
0007E000
0007C000
0007C000
00038000
00038000
00018000
00010000
ENDCHAR
STARTCHAR W
ENCODING 87
SWIDTH 1120 0
DWIDTH 36 0
BBX 41 28 -1 -3
BITMAP
000000040000
00000003C000
00000000FF80
000000007800
000000007000
004000006000
00C000004000
01800000C000
078000008000
3F8000008000
DF8020018000
078070010000
03C070010000
03C0F8020000
03C0BC020000
01E13C040000
01E11E040000
01F21F0C0000
00F60F080000
00FC0F980000
00FC0FD00000
007807F00000
007807E00000
007003E00000
002003C00000
002001C00000
000001800000
000000800000
ENDCHAR
STARTCHAR X
ENCODING 88
SWIDTH 868 0
DWIDTH 28 0
BBX 28 25 0 -1
BITMAP
003E0000
FFF82000
07F81800
01F80780
00F80640
007C0400
003C0800
003E0800
001F1000
000F1000
000FA000
0007E000
0007C000
0007E000
000DE000
0008F000
0010F000
00307800
00203C00
00403C00
00C01E00
03C00F00
7FC00F80
01E1FFE0
00300010
ENDCHAR
STARTCHAR Y
ENCODING 89
SWIDTH 796 0
DWIDTH 26 0
BBX 28 31 1 -3
BITMAP
00200000
03C00000
FF001C00
3F0007F0
0F000600
07800C00
03C00800
03E01000
01F02000
00F86000
007CC000
003F8000
003F0000
001F0000
001F0000
000E0000
000E0000
000E0000
000E0000
000E0000
000E0000
000F0000
000F0000
000F0000
000F0000
000F0000
000F0000
001F0000
003F0000
01FF8000
0001E000
ENDCHAR
STARTCHAR Z
ENCODING 90
SWIDTH 627 0
DWIDTH 20 0
BBX 19 27 2 -3
BITMAP
800000
E01800
FFF800
E1F800
81F000
81F000
81F000
83E000
83E000
83C000
03C000
07C000
078000
078000
078000
0F0100
0F0080
0E0080
1E0080
1E0080
1C00C0
1C01C0
3C01C0
3803E0
381FE0
7FE000
780000
ENDCHAR
STARTCHAR bracketleft
ENCODING 91
SWIDTH 344 0
DWIDTH 11 0
BBX 10 32 0 -6
BITMAP
1F00
3CC0
3800
3800
3800
3800
3800
3000
7000
7000
7000
7000
7000
7000
7000
7000
7000
F000
F000
F000
F000
F000
F000
F000
F000
F000
F000
F000
F000
F000
F800
3FC0
ENDCHAR
STARTCHAR backslash
ENCODING 92
SWIDTH 347 0
DWIDTH 11 0
BBX 11 34 0 -4
BITMAP
8000
4000
4000
4000
6000
2000
2000
2000
1000
1000
1000
1800
0800
0800
0800
0C00
0400
0400
0600
0200
0200
0200
0300
0100
0100
0180
0080
0080
00C0
00C0
0040
0040
0060
0020
ENDCHAR
STARTCHAR bracketright
ENCODING 93
SWIDTH 334 0
DWIDTH 11 0
BBX 10 29 1 -7
BITMAP
0300
7F00
0F00
0F00
0700
0700
0700
0780
0780
0780
0780
0780
0780
0780
0780
0780
0780
0780
07C0
07C0
07C0
07C0
07C0
07C0
07C0
0F00
1C00
3000
C000
ENDCHAR
STARTCHAR asciicircum
ENCODING 94
SWIDTH 658 0
DWIDTH 21 0
BBX 17 8 2 17
BITMAP
010000
038000
07C000
0FE000
1EF000
787C00
C01E00
000380
ENDCHAR
STARTCHAR underscore
ENCODING 95
SWIDTH 678 0
DWIDTH 22 0
BBX 18 2 2 -10
BITMAP
07FFC0
FC0000
ENDCHAR
STARTCHAR grave
ENCODING 96
SWIDTH 278 0
DWIDTH 9 0
BBX 6 7 2 24
BITMAP
C0
E0
70
38
38
1C
04
ENDCHAR
STARTCHAR a
ENCODING 97
SWIDTH 527 0
DWIDTH 17 0
BBX 17 24 0 -4
BITMAP
0F8000
11C000
20E000
206000
307000
387000
3C7000
3C7000
1C7800
007800
007800
0FF800
383800
703800
E03C00
E03C00
E03C00
F0FC00
FFFC80
7F9C80
3E1E80
001F80
000F80
000700
ENDCHAR
STARTCHAR b
ENCODING 98
SWIDTH 582 0
DWIDTH 19 0
BBX 21 37 -3 -1
BITMAP
010000
010000
030000
070000
1F0000
FF0000
0F0000
070000
070000
070000
070000
070000
070000
070000
070000
070000
070000
030000
030000
030000
038000
038F80
03BFE0
03E1F0
03C0F0
038078
038078
038078
038078
038078
03C070
03C070
03C0E0
03E1C0
07FF80
0F8000
180000
ENDCHAR
STARTCHAR c
ENCODING 99
SWIDTH 437 0
DWIDTH 14 0
BBX 13 18 0 2
BITMAP
07C0
09F0
10F0
20F0
60F0
6060
E000
E000
E010
E010
E008
E008
E008
7008
7818
3C30
1FE0
0FC0
ENDCHAR
STARTCHAR d
ENCODING 100
SWIDTH 523 0
DWIDTH 17 0
BBX 17 30 0 1
BITMAP
000400
001C00
007C00
01BC00
001C00
001C00
001C00
001C00
001C00
001C00
001C00
001C00
001C00
001C00
001C00
001C00
001C00
001C00
0FDC00
3C3C00
781C00
701C00
F01C00
F01C00
F01C00
F01C00
F01C00
781C00
3C3E00
0FFF80
ENDCHAR
STARTCHAR e
ENCODING 101
SWIDTH 434 0
DWIDTH 14 0
BBX 13 17 1 1
BITMAP
07C0
1C70
3830
3838
7038
7038
F038
F070
F0E0
FF90
F008
F008
7008
7808
3810
1E30
07C0
ENDCHAR
STARTCHAR f
ENCODING 102
SWIDTH 299 0
DWIDTH 10 0
BBX 17 41 -2 -5
BITMAP
003E00
004300
008300
018180
010380
010780
031F80
033F00
033F00
031E00
030000
070000
070000
070800
0FF000
FF0000
070000
070000
070000
070000
070000
070000
070000
070000
070000
070000
070000
070000
070000
070000
070000
070000
070000
070000
078000
078000
078000
07C000
0FF800
1C0000
200000
ENDCHAR
STARTCHAR g
ENCODING 103
SWIDTH 567 0
DWIDTH 18 0
BBX 20 31 -1 -12
BITMAP
0003C0
0004E0
0008F0
03F8F0
0F1CF0
1E0CE0
3C0E00
3C0E00
3C0E00
3C0F00
3C0E00
3C0E00
1E1E00
0F3C00
03F000
0C0000
0C0000
0E0000
03F000
061E00
1C0780
3803C0
7803C0
7801C0
7001C0
F001C0
780180
780380
7C0300
3E0C00
0FF000
ENDCHAR
STARTCHAR h
ENCODING 104
SWIDTH 566 0
DWIDTH 18 0
BBX 20 34 -1 0
BITMAP
008000
018000
078000
1F8000
7F0000
070000
030000
030000
030000
030000
030000
070000
070000
070000
070000
070000
070000
070000
063C00
067F00
06CF00
068780
070780
070780
070780
0F0780
0E0780
0E0780
0E0780
0E0780
0E0780
1E0780
FE0FF0
03B000
ENDCHAR
STARTCHAR i
ENCODING 105
SWIDTH 301 0
DWIDTH 10 0
BBX 9 23 0 3
BITMAP
0C00
1E00
1E00
0C00
0000
0200
0E00
FE00
1E00
1E00
1E00
1E00
1E00
1C00
1C00
1C00
1C00
1C00
1C00
1C00
1C00
3E00
FF80
ENDCHAR
STARTCHAR j
ENCODING 106
SWIDTH 367 0
DWIDTH 12 0
BBX 15 37 -4 -16
BITMAP
0060
00F0
00F0
0060
0000
0000
0008
0FF8
00FC
007C
003C
003C
003C
001C
001C
001E
001E
000E
000E
000E
000E
000E
000E
000E
000E
000C
1C0C
7E0C
7E0C
FE0C
F818
C018
C018
C030
4060
20C0
1F00
ENDCHAR
STARTCHAR k
ENCODING 107
SWIDTH 567 0
DWIDTH 18 0
BBX 20 36 -2 -4
BITMAP
010000
030000
070000
1F0000
FF0000
070000
070000
070000
030000
030000
030000
030000
030000
030000
030000
031C00
0307C0
030600
038C00
038800
039000
03B000
03F000
03B000
03B840
03B820
039C10
039C10
039E10
038F30
0387F0
0383E0
03C000
03C000
07C000
3FFC00
ENDCHAR
STARTCHAR l
ENCODING 108
SWIDTH 354 0
DWIDTH 11 0
BBX 13 29 -2 1
BITMAP
0080
0080
0180
0380
0780
1F80
3F80
C780
0780
0780
0380
0380
0380
0380
0380
0380
0380
0380
0380
03C0
01C0
01C0
01C0
01C0
01C0
01C0
01C0
01E0
0FF8
ENDCHAR
STARTCHAR m
ENCODING 109
SWIDTH 708 0
DWIDTH 23 0
BBX 22 15 0 3
BITMAP
040000
0C0000
7CF1E0
BDFBF0
1D3C70
1E3C70
0E3870
0E3870
0C3870
0C3870
0EFC70
0E07F0
7F0070
008018
000004
ENDCHAR
STARTCHAR n
ENCODING 110
SWIDTH 584 0
DWIDTH 19 0
BBX 19 21 0 -1
BITMAP
040000
0C0000
1C1E00
7C7F00
9CCF80
1C8780
0F0380
0F0380
0F0380
0E0380
0E0380
060380
060380
060380
060380
070300
070700
073F00
3F8380
0040C0
000020
ENDCHAR
STARTCHAR o
ENCODING 111
SWIDTH 503 0
DWIDTH 16 0
BBX 15 15 1 2
BITMAP
07E0
1C78
383C
701C
701E
F00E
F00E
F00E
F00E
F00E
F80E
780C
3C18
1E30
07E0
ENDCHAR
STARTCHAR p
ENCODING 112
SWIDTH 509 0
DWIDTH 16 0
BBX 15 30 1 -14
BITMAP
0400
0C00
1CF0
7DFC
FE3C
1C1E
1C1E
1C1E
1C1E
1C1E
1C1C
1C1C
1C18
1E38
1DE0
1C00
1C00
1C00
1C00
1C00
1C00
1C00
1C00
1C00
1C00
3C00
3C00
3E00
FF00
0180
ENDCHAR
STARTCHAR q
ENCODING 113
SWIDTH 505 0
DWIDTH 16 0
BBX 16 29 0 -13
BITMAP
0FBF
3C78
7838
7038
F038
F038
F038
7038
7838
3C78
1FB8
0038
0038
0038
0038
0038
0038
0038
0038
0038
0038
0038
0038
0038
0038
0078
07F8
003C
0007
ENDCHAR
STARTCHAR r
ENCODING 114
SWIDTH 414 0
DWIDTH 13 0
BBX 15 22 0 0
BITMAP
0038
00C4
0486
0D0E
1D3E
FE3C
1E1C
1E00
1E00
1E00
1E00
1E00
0E00
0E00
0E00
0E00
0E00
0F00
0F00
0F00
1FE0
7000
ENDCHAR
STARTCHAR s
ENCODING 115
SWIDTH 482 0
DWIDTH 15 0
BBX 15 24 0 -3
BITMAP
0004
01FC
0718
0608
0E08
0E08
0E08
0700
0780
03C0
01E0
00F0
0078
007C
083E
0C1E
081E
180E
300E
700E
F80E
881C
0438
01F0
ENDCHAR
STARTCHAR t
ENCODING 116
SWIDTH 434 0
DWIDTH 14 0
BBX 13 25 0 -1
BITMAP
0080
0180
0180
0180
0300
0300
0700
0FF0
FF00
1E00
1E00
1E00
1C00
1C00
3C00
3C00
3C00
3C00
3C38
3C38
3C18
1C18
1E18
0F10
07E0
ENDCHAR
STARTCHAR u
ENCODING 117
SWIDTH 744 0
DWIDTH 24 0
BBX 23 17 1 1
BITMAP
040040
0401C0
0C1FC0
3E01C0
FE01C0
0E01C0
0E01C0
0E01C0
0F01E0
0F01E0
0701E0
0702E0
0782FE
07C670
03FC00
03F800
00F000
ENDCHAR
STARTCHAR v
ENCODING 118
SWIDTH 600 0
DWIDTH 19 0
BBX 19 20 0 -1
BITMAP
018000
070000
1F0000
FF0000
0F0000
0F0FE0
078100
078100
038300
03C200
01C200
01E200
01E400
00E400
00F400
007800
007800
003800
003000
001000
ENDCHAR
STARTCHAR w
ENCODING 119
SWIDTH 745 0
DWIDTH 24 0
BBX 24 17 0 -1
BITMAP
018007
06003C
1E0418
FE0418
1E0E10
1F0F10
0F1F10
0F17A0
0F27A0
07A3E0
07A3E0
07C1C0
03C1C0
03C080
038000
018000
010000
ENDCHAR
STARTCHAR x
ENCODING 120
SWIDTH 548 0
DWIDTH 18 0
BBX 18 19 0 1
BITMAP
006000
038000
FF0000
1F0000
0F9FC0
078400
078800
03C800
03D000
01E000
01E000
00E000
00F000
01F000
017000
023800
0C3C00
3A3F80
01C000
ENDCHAR
STARTCHAR y
ENCODING 121
SWIDTH 659 0
DWIDTH 21 0
BBX 20 32 0 -14
BITMAP
008000
030000
0E0010
3C1FF0
FC03E0
3C03E0
3C01E0
1C01E0
1C01C0
1E01C0
1E01C0
1E01C0
0E03C0
0F03C0
0F05C0
0785C0
03F9C0
01F180
000180
000180
000180
000300
000300
078300
0F8200
13C600
13C600
118400
100800
081800
0C3000
07C000
ENDCHAR
STARTCHAR z
ENCODING 122
SWIDTH 460 0
DWIDTH 15 0
BBX 14 18 1 0
BITMAP
F000
FFF0
C0E0
80E0
81E0
81C0
83C0
8780
0780
0F00
0F00
1E04
3E04
3C04
7C0C
783C
FFFC
C000
ENDCHAR
STARTCHAR braceleft
ENCODING 123
SWIDTH 460 0
DWIDTH 15 0
BBX 14 41 1 -10
BITMAP
00F0
0388
0300
0700
0700
0700
0700
0700
0700
0780
0780
0780
0780
0780
0780
0780
0780
0F00
3E00
F000
7000
1800
0E00
0600
0700
0700
0700
0780
0780
0780
0780
0780
0780
0780
0780
0788
0784
0784
03C8
03F8
01F0
ENDCHAR
STARTCHAR bar
ENCODING 124
SWIDTH 368 0
DWIDTH 12 0
BBX 2 34 5 -6
BITMAP
80
80
80
80
80
80
80
80
80
80
80
80
80
80
80
80
80
80
80
80
80
80
80
80
80
80
80
80
80
40
40
40
40
40
ENDCHAR
STARTCHAR braceright
ENCODING 125
SWIDTH 476 0
DWIDTH 15 0
BBX 14 34 1 -8
BITMAP
3E00
7F80
C780
87C0
03C0
03C0
03C0
03C0
03C0
03C0
03C0
01C0
00E0
007C
0018
0030
0030
0070
0070
0078
0078
0038
0038
003C
003C
001C
001C
001C
001C
0018
0018
0030
00E0
0780
ENDCHAR
STARTCHAR asciitilde
ENCODING 126
SWIDTH 733 0
DWIDTH 23 0
BBX 20 6 2 5
BITMAP
000010
1F0030
3FE0E0
43FFC0
80FFC0
801F00
ENDCHAR
STARTCHAR nonbreakingspace
ENCODING 160
SWIDTH 270 0
DWIDTH 9 0
BBX 1 1 0 0
BITMAP
00
ENDCHAR
STARTCHAR exclamdown
ENCODING 161
SWIDTH 247 0
DWIDTH 8 0
BBX 5 34 2 -4
BITMAP
60
F0
F0
60
00
00
00
00
20
20
20
20
20
30
70
70
70
70
70
70
70
70
70
70
78
78
F8
F8
F8
F8
F8
F8
F0
70
ENDCHAR
STARTCHAR cent
ENCODING 162
SWIDTH 799 0
DWIDTH 26 0
BBX 15 29 5 -7
BITMAP
0800
0400
0400
0400
07E0
0E18
1E0C
3A0C
720E
721E
711E
F13C
F11C
F100
F080
F080
F080
F082
7882
7C44
3E4C
1FF8
07E0
0020
0020
0020
0010
0010
0010
ENDCHAR
STARTCHAR sterling
ENCODING 163
SWIDTH 799 0
DWIDTH 26 0
BBX 18 30 4 -4
BITMAP
00F800
030C00
060600
0C0E00
0C0F00
1C1F00
1C3F00
1C3E00
1E3E00
1E1C00
1E0000
1F0000
1F0000
0FF000
1F8000
EF8000
07C000
07C000
03C000
03E000
01E000
01E000
01E080
01E040
1FC040
21C040
41F840
41BFC0
420F00
3C0000
ENDCHAR
STARTCHAR currency
ENCODING 164
SWIDTH 732 0
DWIDTH 23 0
BBX 20 22 2 1
BITMAP
000200
000400
800C00
63FC00
3E0600
180300
300100
300080
600080
600080
600080
600080
600100
700200
300200
1C0E00
0FF380
1800C0
180060
300010
300000
200000
ENDCHAR
STARTCHAR yen
ENCODING 165
SWIDTH 799 0
DWIDTH 26 0
BBX 23 33 1 -4
BITMAP
007000
FFC006
1FC038
0FC3F0
07C060
03C040
03E040
01E080
01F080
00F100
00F900
007D00
007E00
003E00
003E00
001E00
001E00
07FFFE
001E00
001E00
001FE0
03FE00
001E00
001C00
001C00
001C00
001E00
001E00
003E00
003F00
007FC0
00F020
030000
ENDCHAR
STARTCHAR brokenbar
ENCODING 166
SWIDTH 341 0
DWIDTH 11 0
BBX 1 37 5 -8
BITMAP
80
80
80
80
80
80
80
80
80
80
80
80
80
80
00
00
00
80
80
80
80
80
80
80
80
80
80
80
80
80
80
80
80
80
80
80
80
ENDCHAR
STARTCHAR section
ENCODING 167
SWIDTH 546 0
DWIDTH 18 0
BBX 14 37 2 -10
BITMAP
03E0
0C38
1818
381C
383C
383C
383C
3818
3C00
3E00
3F00
1FC0
3FE0
63F0
E1F8
E07C
E03C
E01C
F00C
780C
7E0C
3F08
1FD8
07F0
03F0
00F0
0078
0018
0018
000C
000C
0008
0E08
1E08
1F10
0FE0
07C0
ENDCHAR
STARTCHAR dieresis
ENCODING 168
SWIDTH 393 0
DWIDTH 13 0
BBX 7 4 3 21
BITMAP
60
EE
EE
CE
ENDCHAR
STARTCHAR copyright
ENCODING 169
SWIDTH 1023 0
DWIDTH 33 0
BBX 29 29 2 -5
BITMAP
001FE000
00E03C00
03000700
04000380
080080C0
10008060
201F8060
20718030
40E08030
40C08018
41C04018
81C00018
81C00018
81C02018
81C02018
81E02018
80E06018
80F8C038
807F8030
C01F0030
40000070
60000060
200000E0
300001C0
18000380
0E000F00
07807E00
01FFF800
007FC000
ENDCHAR
STARTCHAR ordfeminine
ENCODING 170
SWIDTH 558 0
DWIDTH 18 0
BBX 14 16 2 10
BITMAP
3E00
6300
C380
C180
E180
E180
E1C0
1FC0
31C0
61C0
E1C4
E1C4
E1C4
E2E4
7EFC
3C78
ENDCHAR
STARTCHAR guillemotleft
ENCODING 171
SWIDTH 608 0
DWIDTH 19 0
BBX 16 28 2 -8
BITMAP
0002
0002
0002
0042
0046
00C4
0084
018C
030C
0718
0E18
3C38
7C78
F8FC
FC3C
7C1C
3E1E
1F0E
0F06
0787
0383
01C3
00C3
00E1
0061
0030
0010
0010
ENDCHAR
STARTCHAR logicalnot
ENCODING 172
SWIDTH 616 0
DWIDTH 20 0
BBX 16 6 2 8
BITMAP
FFFF
0001
0001
0001
0001
0001
ENDCHAR
STARTCHAR uni00AD
ENCODING 173
SWIDTH 436 0
DWIDTH 14 0
BBX 10 1 2 6
BITMAP
FFC0
ENDCHAR
STARTCHAR registered
ENCODING 174
SWIDTH 1048 0
DWIDTH 34 0
BBX 30 30 2 -7
BITMAP
001FE000
00F01C00
03800300
06000080
0C000040
19FFE020
3078F010
30307010
60307808
60307808
60307804
C0307004
C030E004
C031C004
C03F8004
C03B8004
C03B8104
C039C104
C039E104
E038F108
60787F08
60FC3E08
33FF0010
30000010
18000020
0C000040
06000080
03800300
00E01C00
001FE000
ENDCHAR
STARTCHAR macron
ENCODING 175
SWIDTH 382 0
DWIDTH 12 0
BBX 9 1 2 25
BITMAP
FF80
ENDCHAR
STARTCHAR degree
ENCODING 176
SWIDTH 346 0
DWIDTH 11 0
BBX 7 8 2 23
BITMAP
3C
7E
C6
C2
82
C2
46
3C
ENDCHAR
STARTCHAR plusminus
ENCODING 177
SWIDTH 580 0
DWIDTH 19 0
BBX 16 12 1 5
BITMAP
0080
0080
0080
0080
0180
7FFF
0080
0080
0080
0080
7FF0
FFFC
ENDCHAR
STARTCHAR twosuperior
ENCODING 178
SWIDTH 365 0
DWIDTH 12 0
BBX 10 17 1 11
BITMAP
0F00
1F80
23C0
41C0
01C0
01C0
01C0
0380
0300
0600
1800
6000
F040
3CC0
0F80
0700
0600
ENDCHAR
STARTCHAR threesuperior
ENCODING 179
SWIDTH 371 0
DWIDTH 12 0
BBX 11 16 0 12
BITMAP
7F00
3E00
4600
4400
0800
0F00
03C0
01C0
80E0
80E0
80E0
80E0
41E0
63C0
3F80
1F00
ENDCHAR
STARTCHAR acute
ENCODING 180
SWIDTH 234 0
DWIDTH 8 0
BBX 4 6 2 24
BITMAP
30
30
60
60
C0
80
ENDCHAR
STARTCHAR mu
ENCODING 181
SWIDTH 634 0
DWIDTH 20 0
BBX 19 26 2 -10
BITMAP
E00800
E07800
E03800
E03800
E03800
E03800
E03800
E01C80
E01C40
E03C60
F03C20
F83C20
EC4E60
E78FC0
E00780
E00000
E00000
E00000
F00000
F00000
F00000
F00000
F00000
F00000
F00000
700000
ENDCHAR
STARTCHAR paragraph
ENCODING 182
SWIDTH 707 0
DWIDTH 23 0
BBX 23 39 0 -12
BITMAP
000004
000018
0000F0
01FFE0
0FC1C0
3FC1C0
7FC1C0
7FC1C0
FFC1C0
FFC180
FFC180
FFC180
FFC180
7FC180
7FC180
3FC180
0FC180
03C180
01C180
01C180
01C180
01C1C0
01C1C0
01C1C0
00C1C0
00C1C0
00C1C0
00C1C0
00C1C0
00E1E0
00E1E0
00E1F0
00E1FE
00E000
01E000
01E000
03E000
060000
380000
ENDCHAR
STARTCHAR periodcentered
ENCODING 183
SWIDTH 238 0
DWIDTH 8 0
BBX 4 5 2 10
BITMAP
60
F0
F0
F0
60
ENDCHAR
STARTCHAR cedilla
ENCODING 184
SWIDTH 332 0
DWIDTH 11 0
BBX 7 11 2 -8
BITMAP
10
10
20
38
3C
0E
0E
8E
8E
FC
78
ENDCHAR
STARTCHAR onesuperior
ENCODING 185
SWIDTH 336 0
DWIDTH 11 0
BBX 10 14 0 14
BITMAP
0100
0300
0600
0E00
3600
4600
0600
0600
0600
0600
0E00
0F00
FF00
01C0
ENDCHAR
STARTCHAR ordmasculine
ENCODING 186
SWIDTH 503 0
DWIDTH 16 0
BBX 14 14 1 10
BITMAP
0FC0
31E0
4078
4038
C01C
C01C
C01C
C00C
C00C
E00C
6008
3018
1C30
0FC0
ENDCHAR
STARTCHAR guillemotright
ENCODING 187
SWIDTH 778 0
DWIDTH 25 0
BBX 21 30 2 -9
BITMAP
010000
008000
00C000
804000
806000
803000
C01800
601C00
780F00
3C0780
1F81E0
0FF0F0
03FCF8
01F1F0
01E3E0
03C780
030F00
060E00
0C1C00
1C3800
183800
307000
206000
606000
406000
40C000
00C000
00C000
008000
008000
ENDCHAR
STARTCHAR onequarter
ENCODING 188
SWIDTH 876 0
DWIDTH 28 0
BBX 27 30 0 0
BITMAP
00000100
00000200
01000600
03000400
06000C00
0E001800
36001000
46003000
06006000
0600C000
06008000
06018800
0E030800
0F061800
FF041800
01CC3C00
00183C00
00105C00
00305C80
00609C80
00C10C80
00810D80
0183FFC0
0303FFC0
02000E00
04000E00
0C000F00
08000F80
10003FE0
30006000
ENDCHAR
STARTCHAR onehalf
ENCODING 189
SWIDTH 762 0
DWIDTH 24 0
BBX 24 31 0 -1
BITMAP
000001
000002
010006
030004
06000C
0E0018
360010
460030
060060
0600C0
060080
060180
0E0300
0F0600
FF0438
01CC7E
00188E
00110E
00300F
00600E
00C00E
00800E
01801C
030030
020060
040180
0C0781
0800E2
10007C
300038
000010
ENDCHAR
STARTCHAR threequarters
ENCODING 190
SWIDTH 922 0
DWIDTH 30 0
BBX 29 30 0 0
BITMAP
00000080
000000C0
7F000180
3E000100
46000200
44000600
08000C00
0F000800
03C01800
01C03000
80E06000
80E04200
80E0C600
80E18600
41E10E00
63C30E00
3F861E00
1F0C1600
00082620
00184620
00304720
00208760
0040FFE0
00C1FFE0
01800700
01000780
03000780
060007C0
04001FF8
08001000
ENDCHAR
STARTCHAR questiondown
ENCODING 191
SWIDTH 571 0
DWIDTH 18 0
BBX 17 28 1 -3
BITMAP
00E000
01F000
01F000
01F000
00E000
000000
018000
004000
004000
004000
004000
008000
018000
070000
0E0000
1E3C00
3C3F00
7C7F00
787F80
F83F80
F81F80
F80780
F80300
F80300
7C0300
7E0600
1F0C00
07F000
ENDCHAR
STARTCHAR Agrave
ENCODING 192
SWIDTH 784 0
DWIDTH 25 0
BBX 26 37 0 -3
BITMAP
07000000
07000000
03800000
01C00000
00C00000
00600000
00200000
00000000
000C0000
001C0000
007C0000
07FE0000
003E0000
002E0000
002F0000
004F0000
00470000
00478000
00878000
00838000
0083C000
01C3C000
017BC000
010FE000
0303E000
0201E000
0200F000
0600F000
0400F000
0C007800
0C007800
FC007C00
0E007C00
03003E00
00003F00
00007FC0
00038000
ENDCHAR
STARTCHAR Aacute
ENCODING 193
SWIDTH 784 0
DWIDTH 25 0
BBX 26 36 0 -3
BITMAP
00040000
000E0000
000C0000
00180000
00100000
00200000
00000000
000C0000
001C0000
007C0000
07FE0000
003E0000
002E0000
002F0000
004F0000
00470000
00478000
00878000
00838000
0083C000
01C3C000
017BC000
010FE000
0303E000
0201E000
0200F000
0600F000
0400F000
0C007800
0C007800
FC007C00
0E007C00
03003E00
00003F00
00007FC0
00038000
ENDCHAR
STARTCHAR Acircumflex
ENCODING 194
SWIDTH 784 0
DWIDTH 25 0
BBX 26 38 0 -3
BITMAP
00080000
00180000
003C0000
00260000
00430000
00818000
0100C000
02000000
00000000
000C0000
001C0000
007C0000
07FE0000
003E0000
002E0000
002F0000
004F0000
00470000
00478000
00878000
00838000
0083C000
01C3C000
017BC000
010FE000
0303E000
0201E000
0200F000
0600F000
0400F000
0C007800
0C007800
FC007C00
0E007C00
03003E00
00003F00
00007FC0
00038000
ENDCHAR
STARTCHAR Atilde
ENCODING 195
SWIDTH 784 0
DWIDTH 25 0
BBX 26 35 0 -3
BITMAP
01E00000
01F88000
027F8000
023F0000
000E0000
00000000
000C0000
001C0000
007C0000
07FE0000
003E0000
002E0000
002F0000
004F0000
00470000
00478000
00878000
00838000
0083C000
01C3C000
017BC000
010FE000
0303E000
0201E000
0200F000
0600F000
0400F000
0C007800
0C007800
FC007C00
0E007C00
03003E00
00003F00
00007FC0
00038000
ENDCHAR
STARTCHAR Adieresis
ENCODING 196
SWIDTH 784 0
DWIDTH 25 0
BBX 26 36 0 -3
BITMAP
00E00000
00F30000
00F38000
00E38000
00E30000
00000000
00000000
000C0000
001C0000
007C0000
07FE0000
003E0000
002E0000
002F0000
004F0000
00470000
00478000
00878000
00838000
0083C000
01C3C000
017BC000
010FE000
0303E000
0201E000
0200F000
0600F000
0400F000
0C007800
0C007800
FC007C00
0E007C00
03003E00
00003F00
00007FC0
00038000
ENDCHAR
STARTCHAR Aring
ENCODING 197
SWIDTH 784 0
DWIDTH 25 0
BBX 26 38 0 -3
BITMAP
001C0000
00620000
00430000
00410000
00430000
00620000
007E0000
003C0000
00000000
000C0000
001C0000
007C0000
07FE0000
003E0000
002E0000
002F0000
004F0000
00470000
00478000
00878000
00838000
0083C000
01C3C000
017BC000
010FE000
0303E000
0201E000
0200F000
0600F000
0400F000
0C007800
0C007800
FC007C00
0E007C00
03003E00
00003F00
00007FC0
00038000
ENDCHAR
STARTCHAR AE
ENCODING 198
SWIDTH 1172 0
DWIDTH 38 0
BBX 38 32 0 -5
BITMAP
0000000300
0000001F00
000000FF00
00001F8200
000FFE0200
00007E0200
00005E0200
00005E0200
00005E0000
00008E0400
00008E0400
00010E0400
00010F0C00
00010F1C00
00020FFC00
00020F0400
00040F0410
00040F0410
0007FF0618
000C0F8018
00080F8018
00100F8038
0010078038
002007C0F8
002007C1FC
004007FF00
00C007F000
00800F8000
01800E0000
0380180000
0F80600000
FFF0000000
ENDCHAR
STARTCHAR Ccedilla
ENCODING 199
SWIDTH 742 0
DWIDTH 24 0
BBX 23 41 0 -13
BITMAP
000008
000008
000008
000008
000018
00FFF8
03C0F8
0F0038
1E0018
3C000C
3C0004
780004
780000
780000
F80000
F80000
F80000
F80000
F80000
F80002
F80002
F80002
7C0002
7C0002
7E0006
3E0004
1F000C
1F8018
07E070
03FFE0
007F80
000800
000800
000C00
000F00
000780
000380
004380
002380
003F00
001E00
ENDCHAR
STARTCHAR Egrave
ENCODING 200
SWIDTH 557 0
DWIDTH 18 0
BBX 18 37 0 -3
BITMAP
180000
1C0000
0E0000
070000
030000
018000
008000
000000
001F00
FFE300
3E0100
1E0100
1E0100
1E0100
1E0000
1E0000
1E0000
0E0000
0E0000
0E1000
0E1000
0FF000
0E3000
0E1000
0F1000
0F1000
0F0000
070000
070000
070000
070040
070040
070040
070080
070180
FFFF80
001F80
ENDCHAR
STARTCHAR Eacute
ENCODING 201
SWIDTH 557 0
DWIDTH 18 0
BBX 18 36 0 -3
BITMAP
001800
003800
003000
006000
006000
004000
000000
001F00
FFE300
3E0100
1E0100
1E0100
1E0100
1E0000
1E0000
1E0000
0E0000
0E0000
0E1000
0E1000
0FF000
0E3000
0E1000
0F1000
0F1000
0F0000
070000
070000
070000
070040
070040
070040
070080
070180
FFFF80
001F80
ENDCHAR
STARTCHAR Ecircumflex
ENCODING 202
SWIDTH 557 0
DWIDTH 18 0
BBX 18 38 0 -3
BITMAP
008000
00C000
01E000
017000
023800
040C00
080600
100000
000000
001F00
FFE300
3E0100
1E0100
1E0100
1E0100
1E0000
1E0000
1E0000
0E0000
0E0000
0E1000
0E1000
0FF000
0E3000
0E1000
0F1000
0F1000
0F0000
070000
070000
070000
070040
070040
070040
070080
070180
FFFF80
001F80
ENDCHAR
STARTCHAR Edieresis
ENCODING 203
SWIDTH 557 0
DWIDTH 18 0
BBX 18 35 0 -3
BITMAP
070000
071800
0F3800
073800
071800
000000
001F00
FFE300
3E0100
1E0100
1E0100
1E0100
1E0000
1E0000
1E0000
0E0000
0E0000
0E1000
0E1000
0FF000
0E3000
0E1000
0F1000
0F1000
0F0000
070000
070000
070000
070040
070040
070040
070080
070180
FFFF80
001F80
ENDCHAR
STARTCHAR Igrave
ENCODING 204
SWIDTH 438 0
DWIDTH 14 0
BBX 17 42 -1 -6
BITMAP
0C0000
0E0000
070000
038000
018000
00C000
004000
000000
000000
783F80
0FF800
07E000
03E000
03C000
03C000
03C000
03C000
03C000
03C000
03C000
038000
038000
038000
038000
038000
038000
038000
038000
038000
038000
038000
038000
038000
038000
030000
030000
030000
038000
078000
0FF800
3C0000
C00000
ENDCHAR
STARTCHAR Iacute
ENCODING 205
SWIDTH 438 0
DWIDTH 14 0
BBX 17 40 -1 -6
BITMAP
000800
001800
003800
003000
002000
004000
000000
783F80
0FF800
07E000
03E000
03C000
03C000
03C000
03C000
03C000
03C000
03C000
038000
038000
038000
038000
038000
038000
038000
038000
038000
038000
038000
038000
038000
038000
030000
030000
030000
038000
078000
0FF800
3C0000
C00000
ENDCHAR
STARTCHAR Icircumflex
ENCODING 206
SWIDTH 438 0
DWIDTH 14 0
BBX 17 42 -1 -6
BITMAP
008000
00C000
01E000
037000
023800
041C00
080600
100000
000000
783F80
0FF800
07E000
03E000
03C000
03C000
03C000
03C000
03C000
03C000
03C000
038000
038000
038000
038000
038000
038000
038000
038000
038000
038000
038000
038000
038000
038000
030000
030000
030000
038000
078000
0FF800
3C0000
C00000
ENDCHAR
STARTCHAR Idieresis
ENCODING 207
SWIDTH 438 0
DWIDTH 14 0
BBX 17 40 -1 -6
BITMAP
060000
0F1800
0F3800
0F3800
063800
000000
000000
783F80
0FF800
07E000
03E000
03C000
03C000
03C000
03C000
03C000
03C000
03C000
038000
038000
038000
038000
038000
038000
038000
038000
038000
038000
038000
038000
038000
038000
030000
030000
030000
038000
078000
0FF800
3C0000
C00000
ENDCHAR
STARTCHAR Eth
ENCODING 208
SWIDTH 730 0
DWIDTH 23 0
BBX 24 26 0 -7
BITMAP
00FF00
7F87E0
0701F0
0700F8
0700FC
07007E
07007E
07003E
07003E
07003F
07003F
07F03E
7F003E
87003E
07007E
07007C
07807C
0780F8
0780F0
0783C0
0F8700
0FF800
1E0000
300000
400000
800000
ENDCHAR
STARTCHAR Ntilde
ENCODING 209
SWIDTH 799 0
DWIDTH 26 0
BBX 25 38 0 -7
BITMAP
000E0000
001F8800
0027F800
0021F000
0000F000
00000000
00000000
00000000
00000000
FF800080
0FC0FF00
0FC01C00
07E00C00
05F00800
04F80800
047C0800
043E0800
043F0800
041F8800
040FC800
040FE800
0407F800
0403F800
0401F800
0401F800
0400F800
04007800
04003800
04001800
04000800
04000000
04000000
04000000
04000000
0E000000
1E000000
7F000000
01C00000
ENDCHAR
STARTCHAR Ograve
ENCODING 210
SWIDTH 747 0
DWIDTH 24 0
BBX 24 34 0 1
BITMAP
030000
038000
01C000
00E000
00E000
007000
001000
000000
000000
000000
00FE00
0707C0
0E01E0
1C00F0
380078
38007C
78003C
70003E
F0003E
F0001E
F0001E
F0001F
F0001F
F0001E
F0001E
F8001E
78001E
78001C
3C003C
3C0038
1E0070
0F00E0
07C1C0
00FF00
ENDCHAR
STARTCHAR Oacute
ENCODING 211
SWIDTH 747 0
DWIDTH 24 0
BBX 24 32 0 1
BITMAP
000400
000E00
000C00
001800
001000
002000
000000
000000
00FE00
0707C0
0E01E0
1C00F0
380078
38007C
78003C
70003E
F0003E
F0001E
F0001E
F0001F
F0001F
F0001E
F0001E
F8001E
78001E
78001C
3C003C
3C0038
1E0070
0F00E0
07C1C0
00FF00
ENDCHAR
STARTCHAR Ocircumflex
ENCODING 212
SWIDTH 747 0
DWIDTH 24 0
BBX 24 33 0 1
BITMAP
001000
003000
007800
004C00
008600
010300
020180
040000
000000
00FE00
0707C0
0E01E0
1C00F0
380078
38007C
78003C
70003E
F0003E
F0001E
F0001E
F0001F
F0001F
F0001E
F0001E
F8001E
78001E
78001C
3C003C
3C0038
1E0070
0F00E0
07C1C0
00FF00
ENDCHAR
STARTCHAR Otilde
ENCODING 213
SWIDTH 747 0
DWIDTH 24 0
BBX 24 31 0 1
BITMAP
00E000
01F880
013F80
021F80
000F00
000000
000000
00FE00
0707C0
0E01E0
1C00F0
380078
38007C
78003C
70003E
F0003E
F0001E
F0001E
F0001F
F0001F
F0001E
F0001E
F8001E
78001E
78001C
3C003C
3C0038
1E0070
0F00E0
07C1C0
00FF00
ENDCHAR
STARTCHAR Odieresis
ENCODING 214
SWIDTH 747 0
DWIDTH 24 0
BBX 24 32 0 1
BITMAP
00E000
01E300
01E700
01E700
00E300
000000
000000
000000
00FE00
0707C0
0E01E0
1C00F0
380078
38007C
78003C
70003E
F0003E
F0001E
F0001E
F0001F
F0001F
F0001E
F0001E
F8001E
78001E
78001C
3C003C
3C0038
1E0070
0F00E0
07C1C0
00FF00
ENDCHAR
STARTCHAR multiply
ENCODING 215
SWIDTH 541 0
DWIDTH 17 0
BBX 14 19 2 0
BITMAP
0004
0008
0018
0030
4060
2040
1880
0D00
0700
0700
04C0
0860
1830
3000
2000
6000
C000
8000
8000
ENDCHAR
STARTCHAR Oslash
ENCODING 216
SWIDTH 747 0
DWIDTH 24 0
BBX 24 31 0 -2
BITMAP
000002
000006
000004
000008
00FE18
0707F0
0E01E0
1C00F0
3800F8
3800FC
7801BC
70033E
F0063E
F0041E
F00C1E
F0181F
F0101F
F0301F
F0601E
F0C01E
78801E
79801C
3F003C
3E0038
1E0078
0F00E0
0FC1C0
10FF00
300000
200000
400000
ENDCHAR
STARTCHAR Ugrave
ENCODING 217
SWIDTH 690 0
DWIDTH 22 0
BBX 24 34 0 1
BITMAP
006000
007000
003800
003C00
001C00
000E00
000200
000000
000000
000000
000000
001C00
00F000
0FC000
FFC000
1F8FFF
0F80F0
0F8070
0F8030
0F0030
0F0030
0F0030
0F0030
0F0030
0F8020
0F8020
0F8020
078020
078020
07C040
03C040
01F180
00FF80
003E00
ENDCHAR
STARTCHAR Uacute
ENCODING 218
SWIDTH 690 0
DWIDTH 22 0
BBX 24 29 0 1
BITMAP
000018
000030
000030
000060
000040
000040
001C00
00F000
0FC000
FFC000
1F8FFF
0F80F0
0F8070
0F8030
0F0030
0F0030
0F0030
0F0030
0F0030
0F8020
0F8020
0F8020
078020
078020
07C040
03C040
01F180
00FF80
003E00
ENDCHAR
STARTCHAR Ucircumflex
ENCODING 219
SWIDTH 690 0
DWIDTH 22 0
BBX 24 32 0 1
BITMAP
000400
000E00
000E00
001300
002180
0060E0
00C070
010000
000000
001C00
00F000
0FC000
FFC000
1F8FFF
0F80F0
0F8070
0F8030
0F0030
0F0030
0F0030
0F0030
0F0030
0F8020
0F8020
0F8020
078020
078020
07C040
03C040
01F180
00FF80
003E00
ENDCHAR
STARTCHAR Udieresis
ENCODING 220
SWIDTH 690 0
DWIDTH 22 0
BBX 24 32 0 1
BITMAP
003000
0078C0
0079C0
0079C0
0031C0
000000
000000
000000
000000
001C00
00F000
0FC000
FFC000
1F8FFF
0F80F0
0F8070
0F8030
0F0030
0F0030
0F0030
0F0030
0F0030
0F8020
0F8020
0F8020
078020
078020
07C040
03C040
01F180
00FF80
003E00
ENDCHAR
STARTCHAR Yacute
ENCODING 221
SWIDTH 796 0
DWIDTH 26 0
BBX 28 37 1 -3
BITMAP
00003000
00006000
00006000
0000C000
00008000
00008000
00200000
03C00000
FF001C00
3F0007F0
0F000600
07800C00
03C00800
03E01000
01F02000
00F86000
007CC000
003F8000
003F0000
001F0000
001F0000
000E0000
000E0000
000E0000
000E0000
000E0000
000E0000
000F0000
000F0000
000F0000
000F0000
000F0000
000F0000
001F0000
003F0000
01FF8000
0001E000
ENDCHAR
STARTCHAR Thorn
ENCODING 222
SWIDTH 479 0
DWIDTH 15 0
BBX 15 32 1 -3
BITMAP
FF80
3E00
1C00
1C00
1C00
1C00
1FF0
1C78
1C3C
1C1E
181E
181E
181E
1C1E
1C1E
1C3C
1C7C
1FF0
1C00
1C00
1C00
1C00
1C00
1C00
1C00
1C00
1C00
3C00
3C00
3C00
FF00
0080
ENDCHAR
STARTCHAR germandbls
ENCODING 223
SWIDTH 591 0
DWIDTH 19 0
BBX 19 34 -1 -3
BITMAP
0F8000
10C000
306000
207000
607000
603000
603000
607000
607000
606000
606000
70C000
718000
330000
37F000
307E00
381F00
380F80
3807C0
1803E0
1C01E0
1C01E0
1C00E0
1E00E0
1E00E0
0E00E0
0F0060
0F3060
0F3860
0F78C0
0FBC80
1C1F00
300000
C00000
ENDCHAR
STARTCHAR agrave
ENCODING 224
SWIDTH 527 0
DWIDTH 17 0
BBX 17 32 0 -4
BITMAP
700000
700000
380000
1C0000
0C0000
060000
020000
000000
0F8000
11C000
20E000
206000
307000
387000
3C7000
3C7000
1C7800
007800
007800
0FF800
383800
703800
E03C00
E03C00
E03C00
F0FC00
FFFC80
7F9C80
3E1E80
001F80
000F80
000700
ENDCHAR
STARTCHAR aacute
ENCODING 225
SWIDTH 527 0
DWIDTH 17 0
BBX 17 31 0 -4
BITMAP
002000
007000
006000
00C000
008000
010000
000000
0F8000
11C000
20E000
206000
307000
387000
3C7000
3C7000
1C7800
007800
007800
0FF800
383800
703800
E03C00
E03C00
E03C00
F0FC00
FFFC80
7F9C80
3E1E80
001F80
000F80
000700
ENDCHAR
STARTCHAR acircumflex
ENCODING 226
SWIDTH 527 0
DWIDTH 17 0
BBX 17 32 0 -4
BITMAP
010000
038000
03C000
06E000
0C7000
083800
100C00
200000
0F8000
11C000
20E000
206000
307000
387000
3C7000
3C7000
1C7800
007800
007800
0FF800
383800
703800
E03C00
E03C00
E03C00
F0FC00
FFFC80
7F9C80
3E1E80
001F80
000F80
000700
ENDCHAR
STARTCHAR atilde
ENCODING 227
SWIDTH 527 0
DWIDTH 17 0
BBX 17 29 0 -4
BITMAP
070000
0FC400
13FC00
10F800
007000
0F8000
11C000
20E000
206000
307000
387000
3C7000
3C7000
1C7800
007800
007800
0FF800
383800
703800
E03C00
E03C00
E03C00
F0FC00
FFFC80
7F9C80
3E1E80
001F80
000F80
000700
ENDCHAR
STARTCHAR adieresis
ENCODING 228
SWIDTH 527 0
DWIDTH 17 0
BBX 17 29 0 -4
BITMAP
0C0000
1DC000
1DC000
19C000
000000
0F8000
11C000
20E000
206000
307000
387000
3C7000
3C7000
1C7800
007800
007800
0FF800
383800
703800
E03C00
E03C00
E03C00
F0FC00
FFFC80
7F9C80
3E1E80
001F80
000F80
000700
ENDCHAR
STARTCHAR aring
ENCODING 229
SWIDTH 527 0
DWIDTH 17 0
BBX 17 33 0 -4
BITMAP
03C000
066000
042000
042000
0C3000
066000
07E000
03C000
000000
0F8000
11C000
20E000
206000
307000
387000
3C7000
3C7000
1C7800
007800
007800
0FF800
383800
703800
E03C00
E03C00
E03C00
F0FC00
FFFC80
7F9C80
3E1E80
001F80
000F80
000700
ENDCHAR
STARTCHAR ae
ENCODING 230
SWIDTH 700 0
DWIDTH 22 0
BBX 21 21 0 -3
BITMAP
0003C0
000FF0
1C18F0
223078
632038
614030
71C070
71C070
71C0E0
07C3C0
19FF00
31C008
61C008
60E008
E0E008
C1F008
E1F818
E37C38
FF7FF0
7E3FE0
3C0FC0
ENDCHAR
STARTCHAR ccedilla
ENCODING 231
SWIDTH 437 0
DWIDTH 14 0
BBX 13 27 0 -7
BITMAP
07C0
09F0
10F0
20F0
60F0
6060
E000
E000
E010
E010
E008
E008
E008
7008
7818
3C30
1FE0
0FC0
0200
0200
0380
01C0
00E0
10E0
08E0
0FC0
0780
ENDCHAR
STARTCHAR egrave
ENCODING 232
SWIDTH 434 0
DWIDTH 14 0
BBX 13 27 1 1
BITMAP
3000
7800
3800
1C00
0E00
0600
0200
0000
0000
0000
07C0
1C70
3830
3838
7038
7038
F038
F070
F0E0
FF90
F008
F008
7008
7808
3810
1E30
07C0
ENDCHAR
STARTCHAR eacute
ENCODING 233
SWIDTH 434 0
DWIDTH 14 0
BBX 13 25 1 1
BITMAP
0040
00C0
01C0
0180
0100
0200
0000
0000
07C0
1C70
3830
3838
7038
7038
F038
F070
F0E0
FF90
F008
F008
7008
7808
3810
1E30
07C0
ENDCHAR
STARTCHAR ecircumflex
ENCODING 234
SWIDTH 434 0
DWIDTH 14 0
BBX 13 28 1 1
BITMAP
0200
0700
0700
0980
10C0
3070
2018
C000
0000
0000
0000
07C0
1C70
3830
3838
7038
7038
F038
F070
F0E0
FF90
F008
F008
7008
7808
3810
1E30
07C0
ENDCHAR
STARTCHAR edieresis
ENCODING 235
SWIDTH 434 0
DWIDTH 14 0
BBX 13 24 1 1
BITMAP
1C00
1DC0
1DC0
1980
0000
0000
0000
07C0
1C70
3830
3838
7038
7038
F038
F070
F0E0
FF90
F008
F008
7008
7808
3810
1E30
07C0
ENDCHAR
STARTCHAR igrave
ENCODING 236
SWIDTH 301 0
DWIDTH 10 0
BBX 10 26 -1 3
BITMAP
C000
E000
7000
3800
1800
0C00
0400
0000
0000
0100
0700
7F00
0F00
0F00
0F00
0F00
0F00
0E00
0E00
0E00
0E00
0E00
0E00
0E00
1F00
7FC0
ENDCHAR
STARTCHAR iacute
ENCODING 237
SWIDTH 301 0
DWIDTH 10 0
BBX 9 24 0 3
BITMAP
0100
0300
0600
0600
0C00
0800
0000
0200
0E00
FE00
1E00
1E00
1E00
1E00
1E00
1C00
1C00
1C00
1C00
1C00
1C00
1C00
3E00
FF80
ENDCHAR
STARTCHAR icircumflex
ENCODING 238
SWIDTH 301 0
DWIDTH 10 0
BBX 12 26 -1 3
BITMAP
0400
0600
0F00
1B80
11C0
20E0
4030
8000
0000
0100
0700
7F00
0F00
0F00
0F00
0F00
0F00
0E00
0E00
0E00
0E00
0E00
0E00
0E00
1F00
7FC0
ENDCHAR
STARTCHAR idieresis
ENCODING 239
SWIDTH 301 0
DWIDTH 10 0
BBX 9 23 0 3
BITMAP
3000
7300
7700
3300
0000
0000
0200
0E00
FE00
1E00
1E00
1E00
1E00
1E00
1C00
1C00
1C00
1C00
1C00
1C00
1C00
3E00
FF80
ENDCHAR
STARTCHAR eth
ENCODING 240
SWIDTH 476 0
DWIDTH 15 0
BBX 18 28 -3 -3
BITMAP
000800
000800
001000
07E000
187000
205800
408C00
808E00
010600
000700
000300
000380
000380
000380
00FB80
038F80
030780
070380
070380
0F01C0
0F0180
0F0180
070180
070180
078180
038300
01C200
007C00
ENDCHAR
STARTCHAR ntilde
ENCODING 241
SWIDTH 584 0
DWIDTH 19 0
BBX 19 27 0 -1
BITMAP
00E000
01F880
013F80
021F80
000700
000000
040000
0C0000
1C1E00
7C7F00
9CCF80
1C8780
0F0380
0F0380
0F0380
0E0380
0E0380
060380
060380
060380
060380
070300
070700
073F00
3F8380
0040C0
000020
ENDCHAR
STARTCHAR ograve
ENCODING 242
SWIDTH 400 0
DWIDTH 13 0
BBX 21 26 1 6
BITMAP
000070
0000F0
000078
000078
000018
600010
700010
700010
380020
1C0040
0C0040
060080
000300
000C00
1FF000
39C000
71E000
70E000
E0F000
E0F000
E0F000
E0F000
E0E000
71E000
31C000
1F0000
ENDCHAR
STARTCHAR oacute
ENCODING 243
SWIDTH 400 0
DWIDTH 13 0
BBX 21 26 1 6
BITMAP
000070
0000F0
000078
000078
000018
000010
004010
00C010
01C020
018040
010040
020080
000300
000C00
1FF000
39C000
71E000
70E000
E0F000
E0F000
E0F000
E0F000
E0E000
71E000
31C000
1F0000
ENDCHAR
STARTCHAR ocircumflex
ENCODING 244
SWIDTH 400 0
DWIDTH 13 0
BBX 21 26 1 6
BITMAP
000070
0000F0
000078
000078
000018
020010
060010
0F0010
098020
10C040
206040
403080
800300
000C00
1FF000
39C000
71E000
70E000
E0F000
E0F000
E0F000
E0F000
E0E000
71E000
31C000
1F0000
ENDCHAR
STARTCHAR otilde
ENCODING 245
SWIDTH 400 0
DWIDTH 13 0
BBX 21 26 1 6
BITMAP
000070
0000F0
000078
000078
000018
000010
000010
000010
1E0020
1F8840
27F040
23F080
00E300
000C00
1FF000
39C000
71E000
70E000
E0F000
E0F000
E0F000
E0F000
E0E000
71E000
31C000
1F0000
ENDCHAR
STARTCHAR odieresis
ENCODING 246
SWIDTH 400 0
DWIDTH 13 0
BBX 21 26 1 6
BITMAP
000070
0000F0
000078
000078
000018
000010
000010
000010
180020
198040
3B8040
198080
000300
000C00
1FF000
39C000
71E000
70E000
E0F000
E0F000
E0F000
E0F000
E0E000
71E000
31C000
1F0000
ENDCHAR
STARTCHAR divide
ENCODING 247
SWIDTH 592 0
DWIDTH 19 0
BBX 16 12 1 3
BITMAP
01C0
03C0
03C0
0000
0000
0000
FFFF
0000
0000
01C0
03C0
0380
ENDCHAR
STARTCHAR oslash
ENCODING 248
SWIDTH 396 0
DWIDTH 13 0
BBX 12 20 0 1
BITMAP
0100
0100
0100
0F80
3BE0
72E0
6270
E670
E470
E470
EC70
E870
68E0
39C0
1F80
1000
1000
3000
3000
2000
ENDCHAR
STARTCHAR ugrave
ENCODING 249
SWIDTH 744 0
DWIDTH 24 0
BBX 23 25 1 1
BITMAP
030000
038000
01C000
00E000
006000
003000
001000
000000
040040
0401C0
0C1FC0
3E01C0
FE01C0
0E01C0
0E01C0
0E01C0
0F01E0
0F01E0
0701E0
0702E0
0782FE
07C670
03FC00
03F800
00F000
ENDCHAR
STARTCHAR uacute
ENCODING 250
SWIDTH 744 0
DWIDTH 24 0
BBX 23 23 1 1
BITMAP
000800
001800
001800
003000
002000
004000
040040
0401C0
0C1FC0
3E01C0
FE01C0
0E01C0
0E01C0
0E01C0
0F01E0
0F01E0
0701E0
0702E0
0782FE
07C670
03FC00
03F800
00F000
ENDCHAR
STARTCHAR ucircumflex
ENCODING 251
SWIDTH 744 0
DWIDTH 24 0
BBX 23 26 1 1
BITMAP
004000
00C000
01E000
013000
021800
040C00
080600
100000
000000
040040
0401C0
0C1FC0
3E01C0
FE01C0
0E01C0
0E01C0
0E01C0
0F01E0
0F01E0
0701E0
0702E0
0782FE
07C670
03FC00
03F800
00F000
ENDCHAR
STARTCHAR udieresis
ENCODING 252
SWIDTH 744 0
DWIDTH 24 0
BBX 23 23 1 1
BITMAP
018000
01D800
01DC00
019800
000000
000000
040040
0401C0
0C1FC0
3E01C0
FE01C0
0E01C0
0E01C0
0E01C0
0F01E0
0F01E0
0701E0
0702E0
0782FE
07C670
03FC00
03F800
00F000
ENDCHAR
STARTCHAR yacute
ENCODING 253
SWIDTH 659 0
DWIDTH 21 0
BBX 20 36 0 -14
BITMAP
000100
000300
000600
000600
008C00
030800
0E0010
3C1FF0
FC03E0
3C03E0
3C01E0
1C01E0
1C01C0
1E01C0
1E01C0
1E01C0
0E03C0
0F03C0
0F05C0
0785C0
03F9C0
01F180
000180
000180
000180
000300
000300
078300
0F8200
13C600
13C600
118400
100800
081800
0C3000
07C000
ENDCHAR
STARTCHAR thorn
ENCODING 254
SWIDTH 514 0
DWIDTH 16 0
BBX 17 47 -2 -20
BITMAP
030000
060000
3C0000
FC0000
1C0000
1C0000
1C0000
1C0000
1C0000
1C0000
1C0000
0CF000
0F1C00
0E0E00
0E0F00
0E0F00
0E0780
0E0780
0E0780
0E0780
0E0780
0E0780
0E0780
0E0780
0E0F80
0F1F00
0EFE00
0E7C00
0E0000
0E0000
0E0000
0E0000
0F0000
0F0000
0F0000
0F0000
0F0000
0F0000
0F0000
0F0000
0F0000
0F0000
0F0000
0F0000
1F8000
7FC000
007000
ENDCHAR
STARTCHAR ydieresis
ENCODING 255
SWIDTH 659 0
DWIDTH 21 0
BBX 20 38 0 -14
BITMAP
006000
007600
007700
006600
000000
000000
008000
030000
0E0010
3C1FF0
FC03E0
3C03E0
3C01E0
1C01E0
1C01C0
1E01C0
1E01C0
1E01C0
0E03C0
0F03C0
0F05C0
0785C0
03F9C0
01F180
000180
000180
000180
000300
000300
078300
0F8200
13C600
13C600
118400
100800
081800
0C3000
07C000
ENDCHAR
STARTCHAR dotlessi
ENCODING 305
SWIDTH 301 0
DWIDTH 10 0
BBX 9 17 0 3
BITMAP
0200
0E00
FE00
1E00
1E00
1E00
1E00
1E00
1C00
1C00
1C00
1C00
1C00
1C00
1C00
3E00
FF80
ENDCHAR
STARTCHAR OE
ENCODING 338
SWIDTH 1132 0
DWIDTH 36 0
BBX 36 32 0 -5
BITMAP
0000000300
0000001F00
000000F300
00FE3F0100
07839E0100
0E00CE0100
1C006E0100
38007E0000
78003E0000
78001E0000
70001F0000
F0001F0400
F0000F0400
F0000F0400
F8000F0C00
F8000FFC00
F8000F0400
F8000F0400
7C000F0400
7C001F0000
3E001F0000
3F003F0010
1F806F0010
0FE0CF0020
03FF8F0020
00FE0F8020
00000F8060
00000F80E0
00000F83E0
00001FFFE0
00003E0000
0000C00000
ENDCHAR
STARTCHAR oe
ENCODING 339
SWIDTH 798 0
DWIDTH 26 0
BBX 25 15 0 2
BITMAP
0F80F800
31E18C00
70F30600
60770600
E03F0600
E03E0E00
E03E1C00
E01FF100
F01F0100
F01F0080
78170180
38378100
1C23C300
0FC1FE00
0000FC00
ENDCHAR
STARTCHAR circumflex
ENCODING 710
SWIDTH 483 0
DWIDTH 15 0
BBX 12 8 2 21
BITMAP
0400
0600
0F00
1B80
31C0
20E0
4030
8000
ENDCHAR
STARTCHAR caron
ENCODING 711
SWIDTH 428 0
DWIDTH 14 0
BBX 10 9 2 22
BITMAP
0040
0080
C100
6300
3600
3C00
1C00
1800
0800
ENDCHAR
STARTCHAR ring
ENCODING 730
SWIDTH 330 0
DWIDTH 11 0
BBX 7 8 2 27
BITMAP
38
44
C2
82
C2
C6
7C
38
ENDCHAR
STARTCHAR tilde
ENCODING 732
SWIDTH 433 0
DWIDTH 14 0
BBX 10 5 2 23
BITMAP
7000
FC40
9FC0
8FC0
0780
ENDCHAR
STARTCHAR mu.dup1
ENCODING 956
SWIDTH 634 0
DWIDTH 20 0
BBX 19 26 2 -10
BITMAP
E00800
E07800
E03800
E03800
E03800
E03800
E03800
E01C80
E01C40
E03C60
F03C20
F83C20
EC4E60
E78FC0
E00780
E00000
E00000
E00000
F00000
F00000
F00000
F00000
F00000
F00000
F00000
700000
ENDCHAR
STARTCHAR endash
ENCODING 8211
SWIDTH 436 0
DWIDTH 14 0
BBX 10 1 2 6
BITMAP
FFC0
ENDCHAR
STARTCHAR emdash
ENCODING 8212
SWIDTH 651 0
DWIDTH 21 0
BBX 17 2 2 7
BITMAP
03FF80
FE0000
ENDCHAR
STARTCHAR quoteleft
ENCODING 8216
SWIDTH 287 0
DWIDTH 9 0
BBX 6 10 2 17
BITMAP
0C
30
60
60
F0
F0
F8
F8
F8
70
ENDCHAR
STARTCHAR quoteright
ENCODING 8217
SWIDTH 291 0
DWIDTH 9 0
BBX 6 11 2 15
BITMAP
70
F8
FC
FC
7C
3C
1C
08
08
10
20
ENDCHAR
STARTCHAR quotesinglbase
ENCODING 8218
SWIDTH 272 0
DWIDTH 9 0
BBX 5 11 2 -6
BITMAP
70
F8
F8
F8
78
38
10
10
30
20
40
ENDCHAR
STARTCHAR quotedblleft
ENCODING 8220
SWIDTH 445 0
DWIDTH 14 0
BBX 12 12 2 14
BITMAP
0400
1820
3040
30C0
60C0
61C0
F1E0
F1F0
F9F0
F8E0
F800
7000
ENDCHAR
STARTCHAR quotedblright
ENCODING 8221
SWIDTH 444 0
DWIDTH 14 0
BBX 11 12 2 15
BITMAP
7000
F9C0
FBE0
FBE0
7BE0
39E0
18E0
10C0
30C0
2180
4300
0400
ENDCHAR
STARTCHAR quotedblbase
ENCODING 8222
SWIDTH 482 0
DWIDTH 15 0
BBX 12 12 2 -8
BITMAP
7000
F8E0
FDF0
FDF0
7DF0
3CF0
1C70
0860
1860
10C0
2080
0100
ENDCHAR
STARTCHAR bullet
ENCODING 8226
SWIDTH 351 0
DWIDTH 11 0
BBX 8 8 2 9
BITMAP
3C
7E
FF
FF
FF
FF
7E
3C
ENDCHAR
STARTCHAR guilsinglleft
ENCODING 8249
SWIDTH 465 0
DWIDTH 15 0
BBX 11 19 2 -2
BITMAP
0080
0080
0100
0300
0200
0600
0C00
3C00
7800
F800
FC00
3C00
1E00
0700
0380
0180
00C0
0060
0020
ENDCHAR
STARTCHAR guilsinglright
ENCODING 8250
SWIDTH 449 0
DWIDTH 14 0
BBX 11 20 2 -3
BITMAP
4000
4000
6000
3000
3800
1C00
0E00
0F80
07E0
0F80
0F00
1E00
1C00
3800
7000
6000
4000
C000
8000
8000
ENDCHAR
STARTCHAR fraction
ENCODING 8260
SWIDTH 406 0
DWIDTH 13 0
BBX 22 30 -5 0
BITMAP
000004
000008
000008
000010
000030
000060
000040
0000C0
000180
000300
000200
000600
000C00
000800
001800
003000
006000
004000
00C000
018000
030000
020000
060000
0C0000
080000
180000
300000
200000
400000
C00000
ENDCHAR
STARTCHAR foursuperior
ENCODING 8308
SWIDTH 473 0
DWIDTH 15 0
BBX 14 19 1 11
BITMAP
0200
0200
0200
0600
0F00
0F00
1700
1720
2320
4320
4370
FFF0
FFF0
0380
0380
03C0
03E0
0FFC
0800
ENDCHAR
STARTCHAR Euro
ENCODING 8364
SWIDTH 799 0
DWIDTH 26 0
BBX 27 28 0 -1
BITMAP
00000020
00000020
0007F040
001E0CC0
007807C0
00F00380
01E00380
01E00180
03C00100
07C00100
07C08100
07870000
0FB80000
0FC00000
1F860000
7FB80000
0FE00000
0F800000
FF800400
EF800400
07800400
07C00400
07C00400
03E00800
01E00800
00F83000
007FE000
001F8000
ENDCHAR
STARTCHAR minus
ENCODING 8722
SWIDTH 436 0
DWIDTH 14 0
BBX 10 1 2 6
BITMAP
FFC0
ENDCHAR
STARTCHAR f_f
ENCODING 64256
SWIDTH 467 0
DWIDTH 15 0
BBX 18 48 1 -12
BITMAP
01E000
03F000
04F000
08F000
08F000
086000
181F00
103380
1063C0
1043C0
30C7C0
3087C0
318FC0
318F80
318780
318000
318000
318000
318000
37FC00
798000
B18000
31C000
31C000
39C000
38C000
38C000
38E000
38E000
38E000
38E000
187000
1C7000
1C7000
1C7800
1C7C00
1C3F00
1C3800
1E6000
1E8000
1E0000
1E0000
1E0000
1F0000
1F0000
1F8000
3F8000
FFF000
ENDCHAR
STARTCHAR .notdef
ENCODING -1
SWIDTH 270 0
DWIDTH 9 0
BBX 6 20 1 0
BITMAP
FC
84
84
84
84
84
84
84
84
84
84
84
84
84
84
84
84
84
84
FC
ENDCHAR
STARTCHAR .null
ENCODING -1
SWIDTH 0 0
DWIDTH 0 0
BBX 1 1 0 0
BITMAP
00
ENDCHAR
STARTCHAR nonmarkingreturn
ENCODING -1
SWIDTH 270 0
DWIDTH 9 0
BBX 1 1 0 0
BITMAP
00
ENDCHAR
STARTCHAR dieresis.case
ENCODING -1
SWIDTH 393 0
DWIDTH 13 0
BBX 9 5 2 24
BITMAP
6000
F380
F380
F380
6300
ENDCHAR
STARTCHAR o.cmp
ENCODING -1
SWIDTH 400 0
DWIDTH 13 0
BBX 21 26 1 6
BITMAP
000070
0000F0
000078
000078
000018
000010
000010
000010
000020
000040
000040
000080
000300
000C00
1FF000
39C000
71E000
70E000
E0F000
E0F000
E0F000
E0F000
E0E000
71E000
31C000
1F0000
ENDCHAR
STARTCHAR n_n
ENCODING -1
SWIDTH 1024 0
DWIDTH 33 0
BBX 32 21 0 -1
BITMAP
04000000
0C000000
1C1E0000
3C7F0600
FC8FBE00
1C879E78
1F038EFC
0F038F1E
0F038F0E
0E038E0E
0E038E0E
06038E0E
06039E0E
06039E0E
06039E0E
07031E1E
07071F9E
073FA0FE
3F878003
0041C000
00006000
ENDCHAR
STARTCHAR a_a
ENCODING -1
SWIDTH 911 0
DWIDTH 29 0
BBX 30 22 1 -2
BITMAP
0000F800
00018E00
00030600
00078700
1E078300
23078380
61838380
61800380
F1800380
F0C3F380
60C70F80
00CE0380
0FDD8380
38DDC380
70DCC780
F0DE4780
E1CF4F80
E1CFF380
F1E3E384
7E7103C8
3C1E01C8
000000F0
ENDCHAR
STARTCHAR t_h
ENCODING -1
SWIDTH 854 0
DWIDTH 27 0
BBX 28 41 0 -7
BITMAP
00010000
00070000
001F0000
01FF0000
000F0000
00070000
00070000
00070000
00070000
00470000
00870000
01860000
03860000
0F860000
FFFFC000
0F060000
070E0000
0F0E3E00
0F0EC380
0E0E83C0
0E0F01C0
0E0F01E0
0E0E01E0
0E0E01E0
0E0E39E0
0E0E39E0
0E0E39E0
070E39E0
070E19E0
038E19E0
039E31C0
00FE61C0
003F81C0
001E01C0
001E03C0
007F83C0
01C0C7C0
00000FC0
00003FC0
000000E0
00000030
ENDCHAR
STARTCHAR s_s
ENCODING -1
SWIDTH 654 0
DWIDTH 21 0
BBX 21 29 -1 -5
BITMAP
000400
000408
01F808
0313F0
071730
062E10
070E10
070E10
038E00
03CE00
01E700
00F780
00FB80
007BC0
003DE0
001DE0
201EF0
20CEF0
21EE78
31CE78
738C78
5B1C78
8E3878
03E078
010078
010070
0080F0
0061E0
001F80
ENDCHAR
STARTCHAR t_t
ENCODING -1
SWIDTH 569 0
DWIDTH 18 0
BBX 19 29 0 -3
BITMAP
003800
003800
013800
013800
037800
067980
0E7E00
1FF800
FFF000
1E7000
1E7000
1E7000
1E7000
1C7000
1C7000
1C7000
1C71C0
1C71E0
1C31E0
1C38E0
1C1820
1C1C40
0E0780
0E0700
0E0700
070F00
030F00
018E00
007C00
ENDCHAR
STARTCHAR e_e
ENCODING -1
SWIDTH 782 0
DWIDTH 25 0
BBX 25 18 0 0
BITMAP
0F81F000
18C31C00
30C60C00
704E0C00
F04E0600
E0DC0600
E0DC0C00
E19C0C00
E71C0C00
FC1E0800
F01E1900
781E3180
380E2080
1C0F4080
0F078180
03FFC300
0001FF00
00007C00
ENDCHAR
STARTCHAR o_o
ENCODING -1
SWIDTH 751 0
DWIDTH 24 0
BBX 33 28 1 2
BITMAP
0000000700
0000000F80
0000000780
0000000780
0000000380
0000000100
0000000100
0000000100
0000000200
0000000400
0000000400
0000000800
0000003000
07E000C000
1C33BF0000
381E380000
701C1C0000
701C0E0000
F01C0E0000
E03C0E0000
E03C0E0000
E03C0E0000
E03C0E0000
E01C1C0000
703E380000
703BF00000
3870000000
0FC0000000
ENDCHAR
STARTCHAR l_l
ENCODING -1
SWIDTH 573 0
DWIDTH 18 0
BBX 20 32 -1 -5
BITMAP
020100
060300
0E0F00
3E7F00
4E0F00
0E0F00
0E0F00
0E0700
0E0700
0E0700
0E0700
0E0700
0E0700
0E0700
0E0700
0E0700
0E0700
0E0780
0E0780
0E0780
0E0780
0F0780
0F0780
0F0780
0F0780
0F07C0
0F3FF0
0F0000
FF0000
0F8000
01C000
002000
ENDCHAR
STARTCHAR z_z
ENCODING -1
SWIDTH 875 0
DWIDTH 28 0
BBX 29 22 -1 -2
BITMAP
00603000
007FF000
0040E000
0080E000
1C0CE000
13F9C000
20F1C000
21F18000
21E38000
03C38000
03C70000
07870400
070F0400
0F0E0470
0E1E0C78
1C1FFC78
3C380078
38000078
77F80030
783F0030
C003E060
00003F80
ENDCHAR
STARTCHAR j_j
ENCODING -1
SWIDTH 577 0
DWIDTH 18 0
BBX 22 44 -4 -20
BITMAP
000380
0007C0
0007C0
0067C0
00F380
00F000
0061C0
000FE0
0003E0
0009E0
0FFCF0
00FCF0
007CF0
003C70
003C78
003C78
001E38
001E38
001E38
001E38
000E3C
000E3C
000E1C
000E1C
000E1C
000E1C
000E1C
000E1C
000E1C
1C0E1C
7E0C1C
7E0C1C
FE0C1C
F8181C
C01818
C01818
C03018
406018
20F830
1F3C30
003C20
003E40
003F80
001F00
ENDCHAR
STARTCHAR f_b
ENCODING -1
SWIDTH 731 0
DWIDTH 23 0
BBX 26 41 -2 -5
BITMAP
003E0000
00430000
00810000
00818000
01038000
01078000
031F8000
031F0000
033F0000
031E4000
0301C000
070FC000
071FC000
070BC000
1FF7C000
FF01C000
0701C000
0701C000
0701C000
0701C000
0701C000
0701C000
0701C000
0701C000
0701C000
0701DF00
0701E780
0701C3C0
0701C3C0
0701C3C0
0701C3C0
0701C3C0
0701C380
0701C780
0707FE00
078C0000
07800000
07800000
0FF80000
1C000000
20000000
ENDCHAR
STARTCHAR f_k
ENCODING -1
SWIDTH 708 0
DWIDTH 23 0
BBX 21 35 1 -3
BITMAP
008000
018000
078000
3FF800
438C00
078E00
059E00
099E00
09BE00
19BE00
19DC00
11C000
11C000
31C000
71C000
B1CC00
31C3E0
31C300
31C400
31C400
31C800
31D800
31F800
31DC20
31DC10
31CC08
31CE08
31C708
31E798
31E3F8
31E1F0
71E000
F9E000
07F000
1FFE00
ENDCHAR
STARTCHAR f_h
ENCODING -1
SWIDTH 873 0
DWIDTH 28 0
BBX 31 41 -2 -5
BITMAP
003E0000
00430000
00818000
00818000
01038000
01078000
031F8000
031F2000
021F6000
020CE000
0203E000
061FE000
0701E000
0708E000
0FF0C000
FF00C000
0700C000
0700C000
0700C000
0700C000
0700C000
0700C000
0701C000
0701C780
0701CFE0
0701D1E0
0701E0F0
0701E0F0
0701E0F0
0701C0F0
0701C0F0
0701C0F0
0701C0F0
0703C0F0
0703C0F0
0707C1FE
071FE300
07803000
07F00000
0C080000
30000000
ENDCHAR
ENDFONT
